<?xml version="1.0" encoding="UTF-8" standalone="no"?>
<!-- Created with Inkscape (http://www.inkscape.org/) -->

<svg
   width="107.10097mm"
   height="105.20673mm"
   viewBox="0 0 107.10097 105.20673"
   version="1.1"
   id="svg1"
   xml:space="preserve"
   xmlns="http://www.w3.org/2000/svg"
   xmlns:svg="http://www.w3.org/2000/svg"><defs
     id="defs1"><rect
       x="335.85117"
       y="587.73956"
       width="155.23354"
       height="110.3232"
       id="rect1" /></defs><g
     id="layer1"
     transform="translate(-52.544826,-83.969067)"><path
       style="fill:#000000"
       d="m 81.017683,124.84946 -8.877733,-9.05546 -0.93402,0.90528 -0.93402,0.90529 -0.872492,-0.84565 c -1.021122,-0.98971 -1.260778,-1.02904 -1.908569,-0.31324 -0.351352,0.38824 -0.514486,1.09662 -0.602442,2.616 l -0.120618,2.0836 -3.143146,3.13496 -3.143146,3.13496 -3.968336,-3.96172 c -2.182584,-2.17895 -3.968335,-4.03411 -3.968335,-4.12259 0,-0.0885 1.388998,-1.55373 3.086662,-3.25612 l 3.086662,-3.09526 2.062709,-0.15907 c 1.706581,-0.1316 2.164251,-0.26715 2.650846,-0.78511 l 0.588137,-0.62604 -0.894619,-0.92301 -0.894618,-0.92301 0.845652,-0.8725 c 0.957164,-0.98754 1.002176,-1.16184 0.455917,-1.76545 -0.350537,-0.38734 -0.165283,-0.65394 1.841926,-2.65072 2.155326,-2.14413 2.249085,-2.2043 2.741061,-1.75907 0.488983,0.44253 0.550028,0.42378 1.523129,-0.4677 0.937462,-0.85882 1.048682,-0.89706 1.478301,-0.50826 0.431223,0.39025 0.286867,-0.0931 2.061668,-1.0582 0,0 1.754251,-1.71786 5.948685,-2.4981 2.605713,-0.484709 3.496397,0.186242 5.937603,1.305749 2.000936,0.917601 5.137428,2.519541 3.865594,2.400121 -1.10805,-0.10403 -4.941853,-0.19677 -7.039525,0.89646 -1.690404,0.88099 -2.451232,0.59568 -3.84154,4.23615 -0.444179,1.16306 -0.441827,1.19861 0.116193,1.75663 l 0.569547,0.56955 -0.940208,0.96286 -0.940208,0.96286 8.08999,7.90991 8.08999,7.90991 -1.393214,3.50318 c -0.766268,1.92674 -1.472534,3.50432 -1.569481,3.50573 -0.09695,0.001 -4.171248,-4.07241 -9.054002,-9.05292 z m 72.019797,-10.44554 c 1.88643,-1.88225 5.91569,-5.94134 5.99403,-5.863 0.0783,0.0783 0.27421,0.84643 0.43528,1.70687 0.36918,1.97223 0.15668,4.55355 -0.53937,6.55212 -0.55733,1.60026 -3.93549,5.92985 -4.40103,6.09159 -3.47817,2.58968 -7.29464,3.35813 -11.18081,2.38352 l -1.70542,-0.42771 -9.75811,9.75811 -9.7581,9.7581 10.1237,-0.0979 c 5.56804,-0.0538 10.18275,-0.15428 10.25491,-0.22323 0.0722,-0.0689 0.13169,-3.83663 0.13229,-8.37263 l 0.001,-8.24727 0.92604,0.13229 c 2.09121,0.29875 5.69659,0.0705 7.34219,-0.46488 l 1.65364,-0.53796 v 8.96809 8.96809 h 1.59452 1.59453 l -0.0732,18.20413 -0.0732,18.20414 -0.99639,2.01575 c -1.57461,3.18551 -4.4321,5.38129 -7.83712,6.02228 -1.75955,0.33122 -75.819808,0.31706 -77.506299,-0.0148 l -3.4e-4,1.2e-4 c -3.747732,-0.73752 -6.991868,-3.60439 -8.264519,-7.30341 -0.488258,-1.41915 -0.513376,-2.36392 -0.513376,-19.31011 v -17.81795 h 1.5875 1.5875 v -9.0675 -9.06749 l 2.38125,-2.37022 c 1.855408,-1.84681 2.38125,-2.53211 2.38125,-3.10334 0,-0.73363 0.348976,-0.97414 0.666947,-0.45966 0.100707,0.16295 0.538448,-0.0509 1.083155,-0.52916 0.502779,-0.44145 1.004901,-0.80263 1.115825,-0.80263 0.110924,0 0.642562,0.4515 1.181419,1.00334 l 0.979738,1.00334 v 11.56437 11.56436 l 6.35,0.0551 c 3.4925,0.0303 6.895689,0.0601 7.562641,0.0661 l 1.212641,0.011 5.581112,-13.89062 c 3.069612,-7.63984 5.616744,-13.93743 5.660295,-13.99464 0.04355,-0.0572 0.674951,0.14358 1.403111,0.44619 0.72817,0.30262 1.37458,0.46826 1.43648,0.36811 0.0619,-0.10015 0.96718,-2.325 2.01174,-4.9441 1.04456,-2.61911 2.05662,-5.11921 2.24903,-5.55577 0.19242,-0.43656 0.7297,-1.74625 1.19397,-2.91042 0.46427,-1.16416 1.3089,-3.27571 1.87696,-4.692313 1.03189,-2.57326 1.03285,-2.57915 1.03285,-6.34527 v -3.76962 l 2.53961,-2.54918 2.53962,-2.54918 2.08896,0.82466 2.08897,0.82465 -0.007,3.83646 -0.007,3.83646 -2.39347,2.50425 c -2.55612,2.67442 -2.65616,2.81094 -3.22356,4.399073 -0.20322,0.5688 -1.99509,5.06317 -3.98192,9.98748 -1.98683,4.92432 -3.61242,8.99264 -3.61242,9.04072 0,0.0481 0.60335,0.28781 1.34079,0.53275 0.77741,0.25822 1.28995,0.57288 1.2198,0.74887 -0.0665,0.16694 -2.27213,5.63762 -4.90131,12.15707 l -4.780331,11.85353 1.342441,-0.0796 1.34244,-0.0796 0.77032,-1.94454 c 0.42368,-1.0695 0.94949,-2.37333 1.16846,-2.89742 l 0.39814,-0.95287 2.97199,2.96356 2.97199,2.96357 h 1.62051 1.62051 l -1.75694,-1.71223 -1.75694,-1.71222 11.80437,-11.84767 11.80437,-11.84768 -0.38729,-1.19062 c -0.53472,-1.64385 -0.52065,-5.58664 0.0264,-7.40833 0.89173,-2.96934 3.25547,-6.03044 5.81477,-7.53029 3.66348,-2.146943 8.29477,-2.441223 12.0241,-0.76402 l 0.87009,0.39131 -1.05014,1.23952 c -0.57758,0.68173 -2.60661,2.78599 -4.50897,4.67613 l -3.45882,3.43662 5.99014,5.99439 m -65.718614,-1.06567 c -2.364714,-2.30433 -4.299479,-4.26532 -4.299479,-4.35774 0,-0.0924 5.179219,-0.16804 11.509375,-0.16804 6.330157,0 11.509378,0.0846 11.509378,0.188 0,0.4005 -1.19756,3.25158 -1.36578,3.25158 -0.0978,0 -0.72725,-0.2355 -1.398742,-0.52333 l -1.22089,-0.52334 -0.258382,0.58948 c -0.14211,0.32422 -0.712211,1.72058 -1.26689,3.10303 l -1.008508,2.51354 -3.950301,0.0583 -3.950302,0.0583 z m 28.773434,3.84454 c 0,-0.19851 -0.53578,-0.56555 -1.19063,-0.81563 -0.65484,-0.25009 -1.19194,-0.53416 -1.19356,-0.63126 -0.002,-0.0971 0.6132,-1.6946 1.36625,-3.54999 l 1.36918,-3.37344 h 8.95251 8.9525 v 1.55139 c 0,0.85326 0.12061,2.1874 0.26803,2.96474 l 0.26804,1.41336 -1.38348,1.40088 -1.38347,1.40088 h -8.01269 c -6.59133,0 -8.01268,-0.064 -8.01268,-0.36093 z"
       id="path1" /><text
       xml:space="preserve"
       transform="scale(0.26458333)"
       id="text1"
       style="font-style:normal;font-variant:normal;font-weight:normal;font-stretch:normal;font-size:112px;font-family:Serif;-inkscape-font-specification:Serif;white-space:pre;shape-inside:url(#rect1);display:inline;fill:#000000"><tspan
         x="335.85156"
         y="797.47603"
         id="tspan2">A</tspan></text><path
       d="M 111.47433,172.80447 H 97.424656 l -2.462037,5.72691 q -0.909884,2.11414 -0.909884,3.15783 0,0.8296 0.776077,1.47187 0.802839,0.61551 3.425444,0.80284 v 0.99017 H 86.82719 v -0.99017 q 2.274709,-0.40142 2.943741,-1.04369 1.364825,-1.28454 3.024024,-5.21845 l 12.765135,-29.86559 h 0.93664 l 12.63132,30.18673 q 1.5254,3.63953 2.75642,4.73674 1.25778,1.07045 3.47896,1.20426 v 0.99017 h -14.31728 v -0.99017 q 2.16766,-0.10705 2.91698,-0.72256 0.77607,-0.6155 0.77607,-1.49863 0,-1.17749 -1.07045,-3.71981 z m -0.74932,-1.98034 -6.15509,-14.66518 -6.315664,14.66518 z"
       id="text2"
       style="font-size:54.8071px;font-family:Serif;-inkscape-font-specification:Serif;fill:#ffffff;stroke-width:0.489349"
       aria-label="A" /></g></svg>
